<svg xmlns="http://www.w3.org/2000/svg" width="25" height="24" viewBox="0 0 25 24" fill="none">
    <path d="M15.7908 2C14.7246 2.07375 13.4783 2.75624 12.7521 3.64499C12.0896 4.45123 11.5446 5.64872 11.7571 6.81246C12.9221 6.84871 14.1258 6.14997 14.8233 5.24622C15.4758 4.40498 15.9696 3.21499 15.7908 2Z" fill="black"/>
    <path d="M20.0044 8.70998C18.9807 7.42624 17.5419 6.68124 16.1832 6.68124C14.3894 6.68124 13.6307 7.53999 12.3845 7.53999C11.0995 7.53999 10.1232 6.68374 8.57199 6.68374C7.04825 6.68374 5.42577 7.61499 4.39702 9.20747C2.95079 11.45 3.19828 15.6662 5.54201 19.2574C6.38076 20.5424 7.50075 21.9874 8.96574 21.9999C10.2695 22.0124 10.637 21.1636 12.4032 21.1549C14.1694 21.1449 14.5044 22.0111 15.8057 21.9974C17.2719 21.9861 18.4532 20.3849 19.2919 19.0999C19.8932 18.1787 20.1169 17.7149 20.5831 16.6749C17.1919 15.3837 16.6482 10.5612 20.0044 8.70998Z" fill="black"/>
  </svg>