<svg width="12" height="10" viewBox="0 0 12 10" fill="none" xmlns="http://www.w3.org/2000/svg">
    <path
        d="M10.1139 0.327215C10.3194 0.119811 10.5987 0.00218047 10.8906 3.00088e-05C11.1826 -0.00212045 11.4635 0.111384 11.672 0.315738C11.8805 0.520093 11.9997 0.798679 12.0034 1.09061C12.0071 1.38255 11.8952 1.66409 11.6919 1.87371L5.81194 9.22446C5.71093 9.33322 5.58904 9.42051 5.45354 9.48112C5.31804 9.54172 5.17172 9.5744 5.02331 9.5772C4.87491 9.58 4.72746 9.55286 4.58977 9.49741C4.45209 9.44196 4.32699 9.35934 4.22194 9.25446L0.323443 5.35746C0.116276 5.1502 -7.02943e-05 4.86912 3.18633e-08 4.57608C7.0358e-05 4.28303 0.116551 4.00201 0.323818 3.79484C0.531084 3.58767 0.812159 3.47133 1.10521 3.4714C1.39826 3.47147 1.67928 3.58795 1.88644 3.79521L4.96969 6.87921L10.0847 0.361715C10.094 0.349856 10.104 0.338584 10.1147 0.327965L10.1139 0.327215Z"
        fill="white" />
</svg>
    