<svg width="8" height="8" viewBox="0 0 8 8" fill="none" xmlns="http://www.w3.org/2000/svg">
    <path
        d="M0.04 1.6C0.132212 1.14825 0.377673 0.742242 0.734839 0.450678C1.09201 0.159113 1.53894 -9.40602e-05 2 4.16913e-08H6C6.46106 -9.40602e-05 6.90799 0.159113 7.26516 0.450678C7.62233 0.742242 7.86779 1.14825 7.96 1.6H0.04ZM0 2.4V6C0 6.53043 0.210714 7.03914 0.585786 7.41421C0.960859 7.78929 1.46957 8 2 8H6C6.53043 8 7.03914 7.78929 7.41421 7.41421C7.78929 7.03914 8 6.53043 8 6V2.4H0ZM1.6 3.6C1.6 3.49391 1.64214 3.39217 1.71716 3.31716C1.79217 3.24214 1.89391 3.2 2 3.2C2.10609 3.2 2.20783 3.24214 2.28284 3.31716C2.35786 3.39217 2.4 3.49391 2.4 3.6C2.4 3.70609 2.35786 3.80783 2.28284 3.88284C2.20783 3.95786 2.10609 4 2 4C1.89391 4 1.79217 3.95786 1.71716 3.88284C1.64214 3.80783 1.6 3.70609 1.6 3.6ZM1.6 5.2C1.6 5.09391 1.64214 4.99217 1.71716 4.91716C1.79217 4.84214 1.89391 4.8 2 4.8C2.10609 4.8 2.20783 4.84214 2.28284 4.91716C2.35786 4.99217 2.4 5.09391 2.4 5.2C2.4 5.30609 2.35786 5.40783 2.28284 5.48284C2.20783 5.55786 2.10609 5.6 2 5.6C1.89391 5.6 1.79217 5.55786 1.71716 5.48284C1.64214 5.40783 1.6 5.30609 1.6 5.2ZM3.6 3.2C3.70609 3.2 3.80783 3.24214 3.88284 3.31716C3.95786 3.39217 4 3.49391 4 3.6C4 3.70609 3.95786 3.80783 3.88284 3.88284C3.80783 3.95786 3.70609 4 3.6 4C3.49391 4 3.39217 3.95786 3.31716 3.88284C3.24214 3.80783 3.2 3.70609 3.2 3.6C3.2 3.49391 3.24214 3.39217 3.31716 3.31716C3.39217 3.24214 3.49391 3.2 3.6 3.2ZM3.2 5.2C3.2 5.09391 3.24214 4.99217 3.31716 4.91716C3.39217 4.84214 3.49391 4.8 3.6 4.8C3.70609 4.8 3.80783 4.84214 3.88284 4.91716C3.95786 4.99217 4 5.09391 4 5.2C4 5.30609 3.95786 5.40783 3.88284 5.48284C3.80783 5.55786 3.70609 5.6 3.6 5.6C3.49391 5.6 3.39217 5.55786 3.31716 5.48284C3.24214 5.40783 3.2 5.30609 3.2 5.2ZM5.2 3.2C5.30609 3.2 5.40783 3.24214 5.48284 3.31716C5.55786 3.39217 5.6 3.49391 5.6 3.6C5.6 3.70609 5.55786 3.80783 5.48284 3.88284C5.40783 3.95786 5.30609 4 5.2 4C5.09391 4 4.99217 3.95786 4.91716 3.88284C4.84214 3.80783 4.8 3.70609 4.8 3.6C4.8 3.49391 4.84214 3.39217 4.91716 3.31716C4.99217 3.24214 5.09391 3.2 5.2 3.2Z"
        fill="#BF8943" />
</svg>    