<svg xmlns="http://www.w3.org/2000/svg" width="25" height="24" viewBox="0 0 25 24" fill="none">
    <path d="M21.7446 10.2613L13.5868 10.261C13.2266 10.261 12.9346 10.5529 12.9346 10.9131V13.5192C12.9346 13.8794 13.2266 14.1714 13.5868 14.1714H18.1807C17.6777 15.4769 16.7388 16.5702 15.5409 17.2649L17.4998 20.6559C20.642 18.8386 22.4998 15.6499 22.4998 12.0805C22.4998 11.5722 22.4623 11.2089 22.3874 10.7998C22.3304 10.489 22.0606 10.2613 21.7446 10.2613Z" fill="#167EE6"/>
    <path d="M12.5001 18.0869C10.2519 18.0869 8.2892 16.8586 7.2351 15.0409L3.84424 16.9953C5.56982 19.9861 8.8024 22 12.5001 22C14.314 22 16.0256 21.5116 17.5001 20.6605V20.6558L15.5412 17.2648C14.6452 17.7845 13.6083 18.0869 12.5001 18.0869Z" fill="#12B347"/>
    <path d="M17.5 20.6604V20.6558L15.5411 17.2648C14.6451 17.7844 13.6083 18.0869 12.5 18.0869V22C14.3139 22 16.0256 21.5116 17.5 20.6604Z" fill="#0F993E"/>
    <path d="M6.41305 11.9999C6.41305 10.8918 6.71547 9.85501 7.23504 8.95903L3.84418 7.00458C2.98836 8.47438 2.5 10.1813 2.5 11.9999C2.5 13.8185 2.98836 15.5255 3.84418 16.9953L7.23504 15.0408C6.71547 14.1449 6.41305 13.1081 6.41305 11.9999Z" fill="#FFD500"/>
    <path d="M12.5001 5.91305C13.9661 5.91305 15.3128 6.43398 16.3646 7.30051C16.6241 7.51426 17.0012 7.49883 17.2389 7.26113L19.0854 5.41465C19.3551 5.14496 19.3359 4.70352 19.0478 4.45359C17.2855 2.92473 14.9925 2 12.5001 2C8.8024 2 5.56982 4.01395 3.84424 7.00465L7.2351 8.9591C8.2892 7.14141 10.2519 5.91305 12.5001 5.91305Z" fill="#FF4B26"/>
    <path d="M16.3645 7.30051C16.624 7.51426 17.0012 7.49883 17.2389 7.26113L19.0854 5.41465C19.355 5.14496 19.3358 4.70352 19.0477 4.45359C17.2854 2.92469 14.9925 2 12.5 2V5.91305C13.966 5.91305 15.3127 6.43398 16.3645 7.30051Z" fill="#D93F21"/>
</svg>