<svg width="14" height="14" viewBox="0 0 14 14" fill="none" xmlns="http://www.w3.org/2000/svg">
    <path
        d="M5.56092 6.50422C5.36184 6.70359 5.25002 6.97381 5.25 7.25555V8.75005H6.75383C7.03558 8.75005 7.30625 8.63805 7.50575 8.43855L11.9391 4.00289C12.0378 3.90419 12.1161 3.78701 12.1695 3.65805C12.223 3.52908 12.2505 3.39086 12.2505 3.25126C12.2505 3.11167 12.223 2.97344 12.1695 2.84448C12.1161 2.71551 12.0378 2.59833 11.9391 2.49964L11.501 2.06155C11.4023 1.96275 11.2851 1.88436 11.1561 1.83088C11.027 1.7774 10.8887 1.74988 10.7491 1.74988C10.6094 1.74988 10.4711 1.7774 10.3421 1.83088C10.2131 1.88436 10.0959 1.96275 9.99717 2.06155L5.56092 6.50422Z"
        stroke="#0C6E4F" stroke-width="0.75" stroke-linecap="round" stroke-linejoin="round" />
    <path
        d="M12.25 7C12.25 9.47508 12.25 10.7123 11.4812 11.4812C10.7123 12.25 9.4745 12.25 7 12.25C4.52492 12.25 3.28767 12.25 2.51883 11.4812C1.75 10.7123 1.75 9.4745 1.75 7C1.75 4.52492 1.75 3.28767 2.51883 2.51883C3.28767 1.75 4.5255 1.75 7 1.75"
        stroke="#0C6E4F" stroke-width="0.75" stroke-linecap="round" stroke-linejoin="round" />
</svg>