<svg width="130" height="130" viewBox="0 0 130 130" fill="none" xmlns="http://www.w3.org/2000/svg">
    <g clip-path="url(#clip0_379_6135)">
        <path
            d="M49 65.5238C49 61.721 49 57.9181 49 54.1153C49 53.8777 49.0079 53.64 49.0238 53.4023C49.0714 52.5387 49.6343 52.0079 50.5144 52.0079C53.2895 52.0079 56.0646 52.0079 58.8397 52.0079C59.7912 52.0079 60.4017 52.6021 60.4017 53.5687C60.4097 58.5044 60.4176 63.4402 60.3938 68.3838C60.3859 69.3424 59.9974 70.1981 59.2362 70.8081C56.2153 73.2483 53.1864 75.6725 50.1576 78.0968C49.9198 78.287 49.6185 78.5247 49.3409 78.3108C49.1506 78.1602 49.0317 77.8196 49.0238 77.566C49 74.0009 49.0079 70.4358 49 66.8706C49 66.419 49 65.9754 49 65.5238Z"
            fill="white" />
        <path
            d="M75.6648 78.9921C73.8808 78.9921 72.0968 78.9921 70.3128 78.9921C69.3059 78.9921 68.4416 78.6277 67.7677 77.8988C65.6269 75.6012 63.5019 73.2799 61.377 70.9666C60.8061 70.3486 60.8695 69.5247 61.5435 68.9859C63.4147 67.4727 65.2859 65.9754 67.173 64.478C67.9817 63.8363 68.7826 63.9234 69.4882 64.6919C71.8272 67.2271 74.1583 69.7623 76.4894 72.2975C78.1862 74.1435 79.8909 75.9894 81.5877 77.8354C81.8097 78.0731 82.1031 78.3266 81.9604 78.691C81.8097 79.0792 81.4212 79 81.0961 79C79.2804 78.9921 77.4726 78.9921 75.6648 78.9921Z"
            fill="white" />
        <path
            d="M75.5617 52.0079C77.4092 52.0079 79.2566 52.0079 81.112 52.0079C81.215 52.0079 81.334 51.9841 81.4291 52.0158C81.5956 52.0713 81.8652 52.1426 81.8811 52.2377C81.9049 52.412 81.8256 52.6655 81.6987 52.7843C81.3023 53.1488 80.8662 53.4736 80.4459 53.8143C76.8304 56.706 73.2227 59.5977 69.623 62.4815C69.5279 62.5528 69.4327 62.632 69.3376 62.6875C68.8539 62.9727 68.5288 62.838 68.4099 62.2914C68.3782 62.1408 68.3703 61.9745 68.3703 61.8239C68.3703 59.0907 68.3703 56.3574 68.3703 53.632C68.3703 52.5863 68.9411 52.0079 69.9798 52.0079C71.8352 52.0079 73.6985 52.0079 75.5617 52.0079Z"
            fill="white" />
    </g>
    <circle cx="65" cy="65" r="63.5" stroke="#009868" stroke-width="3" />
    <circle cx="65" cy="65" r="51.5" stroke="white" stroke-opacity="0.49" />
    <circle cx="65" cy="65" r="45.75" stroke="white" stroke-opacity="0.49" stroke-width="0.5" />
    <g clip-path="url(#clip1_379_6135)">
        <path
            d="M124 28.0919C124 19.7556 117.284 12.9981 109 12.9981C100.712 13 93.9962 19.7556 93.9962 28.0938C93.9962 35.6256 99.4825 41.8694 106.652 43.0019V32.455H102.846V28.0938H106.656V24.7656C106.656 20.9838 108.897 18.895 112.322 18.895C113.965 18.895 115.681 19.1894 115.681 19.1894V22.9019H113.789C111.927 22.9019 111.346 24.0663 111.346 25.2606V28.0919H115.504L114.841 32.4531H111.344V43C118.514 41.8675 124 35.6238 124 28.0919Z"
            fill="white" />
    </g>
    <path
        d="M98.9423 97.8333C99.9736 97.8361 100.497 97.8416 100.949 97.8544L101.127 97.8608C101.332 97.8682 101.535 97.8773 101.779 97.8883C102.755 97.9342 103.42 98.0882 104.004 98.3146C104.609 98.5474 105.119 98.8628 105.629 99.3715C106.095 99.8297 106.455 100.384 106.685 100.996C106.912 101.58 107.066 102.245 107.112 103.222C107.123 103.465 107.132 103.668 107.139 103.874L107.145 104.052C107.158 104.503 107.164 105.026 107.166 106.058L107.167 106.742V107.942C107.169 108.611 107.162 109.28 107.146 109.948L107.14 110.126C107.133 110.332 107.124 110.535 107.113 110.779C107.067 111.755 106.911 112.419 106.685 113.004C106.456 113.616 106.095 114.171 105.629 114.629C105.17 115.094 104.616 115.455 104.004 115.685C103.42 115.912 102.755 116.066 101.779 116.112C101.562 116.122 101.344 116.131 101.127 116.139L100.949 116.145C100.497 116.158 99.9736 116.164 98.9423 116.166L98.2585 116.167H97.0586C96.3897 116.169 95.7207 116.162 95.052 116.146L94.8742 116.14C94.6566 116.132 94.439 116.122 94.2215 116.112C93.2462 116.066 92.5807 115.912 91.9958 115.685C91.3841 115.456 90.83 115.095 90.3724 114.629C89.9059 114.17 89.5449 113.616 89.3146 113.004C89.0882 112.42 88.9342 111.755 88.8883 110.779C88.8781 110.561 88.869 110.343 88.8608 110.126L88.8563 109.948C88.8394 109.28 88.8317 108.611 88.8333 107.942V106.058C88.8308 105.389 88.8375 104.72 88.8535 104.052L88.8599 103.874C88.8673 103.668 88.8764 103.465 88.8874 103.222C88.9333 102.245 89.0873 101.581 89.3137 100.996C89.5439 100.383 89.9056 99.8289 90.3733 99.3715C90.8308 98.9054 91.3846 98.5447 91.9958 98.3146C92.5807 98.0882 93.2453 97.9342 94.2215 97.8883C94.4653 97.8773 94.6688 97.8682 94.8742 97.8608L95.052 97.8553C95.7204 97.8391 96.3891 97.832 97.0577 97.8343L98.9423 97.8333ZM98 102.417C96.7844 102.417 95.6186 102.9 94.7591 103.759C93.8996 104.619 93.4167 105.784 93.4167 107C93.4167 108.216 93.8996 109.381 94.7591 110.241C95.6186 111.1 96.7844 111.583 98 111.583C99.2156 111.583 100.381 111.1 101.241 110.241C102.1 109.381 102.583 108.216 102.583 107C102.583 105.784 102.1 104.619 101.241 103.759C100.381 102.9 99.2156 102.417 98 102.417ZM98 104.25C98.3611 104.25 98.7188 104.321 99.0524 104.459C99.3861 104.597 99.6893 104.8 99.9447 105.055C100.2 105.31 100.403 105.614 100.541 105.947C100.679 106.281 100.75 106.638 100.75 107C100.751 107.361 100.679 107.718 100.541 108.052C100.403 108.386 100.201 108.689 99.9453 108.944C99.69 109.2 99.3869 109.402 99.0533 109.541C98.7196 109.679 98.3621 109.75 98.0009 109.75C97.2716 109.75 96.5721 109.46 96.0564 108.945C95.5407 108.429 95.2509 107.729 95.2509 107C95.2509 106.271 95.5407 105.571 96.0564 105.055C96.5721 104.54 97.2716 104.25 98.0009 104.25M102.813 101.042C102.51 101.042 102.218 101.162 102.003 101.377C101.788 101.592 101.668 101.884 101.668 102.188C101.668 102.491 101.788 102.783 102.003 102.998C102.218 103.213 102.51 103.333 102.813 103.333C103.117 103.333 103.409 103.213 103.624 102.998C103.839 102.783 103.959 102.491 103.959 102.188C103.959 101.884 103.839 101.592 103.624 101.377C103.409 101.162 103.117 101.042 102.813 101.042Z"
        fill="white" />
    <g clip-path="url(#clip2_379_6135)">
        <path
            d="M16 69C22.0814 69 27 73.9186 27 80C27 86.0814 22.0814 91 16 91C9.91857 91 5 86.0814 5 80C5 73.9186 9.91857 69 16 69ZM13.9886 85.7986C18.86 85.7986 21.5314 81.76 21.5314 78.2557V77.91C22.05 77.5329 22.5057 77.0614 22.8514 76.5271C22.38 76.7314 21.8614 76.8729 21.3271 76.9514C21.8771 76.6214 22.3014 76.1029 22.49 75.49C21.9714 75.7886 21.4057 76.0086 20.8086 76.1343C20.3214 75.6157 19.63 75.3014 18.8757 75.3014C17.4143 75.3014 16.22 76.4957 16.22 77.9571C16.22 78.1614 16.2357 78.3657 16.2986 78.5543C14.0986 78.4443 12.1343 77.3914 10.83 75.7886C10.61 76.1814 10.4686 76.6371 10.4686 77.1243C10.4686 78.0357 10.94 78.8529 11.6471 79.3243C11.2071 79.3243 10.7986 79.1986 10.4529 78.9943V79.0257C10.4529 80.3143 11.3643 81.3829 12.5743 81.6343C12.3543 81.6971 12.1186 81.7286 11.8829 81.7286C11.71 81.7286 11.5529 81.7129 11.38 81.6814C11.71 82.7343 12.7 83.5043 13.8471 83.52C12.9357 84.2271 11.7886 84.6514 10.5471 84.6514C10.3271 84.6514 10.1229 84.6514 9.91857 84.62C11.0814 85.3743 12.48 85.8143 13.9729 85.8143"
            fill="white" />
    </g>
    <path
        d="M43.25 6.25C43.6478 6.25 44.0294 6.40804 44.3107 6.68934C44.592 6.97064 44.75 7.35218 44.75 7.75V18.25C44.75 18.6478 44.592 19.0294 44.3107 19.3107C44.0294 19.592 43.6478 19.75 43.25 19.75H32.75C32.3522 19.75 31.9706 19.592 31.6893 19.3107C31.408 19.0294 31.25 18.6478 31.25 18.25V7.75C31.25 7.35218 31.408 6.97064 31.6893 6.68934C31.9706 6.40804 32.3522 6.25 32.75 6.25H43.25ZM42.875 17.875V13.9C42.875 13.2515 42.6174 12.6297 42.1589 12.1711C41.7003 11.7126 41.0785 11.455 40.43 11.455C39.7925 11.455 39.05 11.845 38.69 12.43V11.5975H36.5975V17.875H38.69V14.1775C38.69 13.6 39.155 13.1275 39.7325 13.1275C40.011 13.1275 40.278 13.2381 40.475 13.435C40.6719 13.632 40.7825 13.899 40.7825 14.1775V17.875H42.875ZM34.16 10.42C34.4942 10.42 34.8147 10.2873 35.051 10.051C35.2873 9.81466 35.42 9.49417 35.42 9.16C35.42 8.4625 34.8575 7.8925 34.16 7.8925C33.8238 7.8925 33.5014 8.02604 33.2637 8.26374C33.026 8.50144 32.8925 8.82384 32.8925 9.16C32.8925 9.8575 33.4625 10.42 34.16 10.42ZM35.2025 17.875V11.5975H33.125V17.875H35.2025Z"
        fill="white" />
    <defs>
        <clipPath id="clip0_379_6135">
            <rect width="33" height="27" fill="white" transform="translate(49 52)" />
        </clipPath>
        <clipPath id="clip1_379_6135">
            <rect width="30" height="30" fill="white" transform="translate(94 13)" />
        </clipPath>
        <clipPath id="clip2_379_6135">
            <rect width="22" height="22" fill="white" transform="translate(5 69)" />
        </clipPath>
    </defs>
</svg>    