<svg width="115" height="27" viewBox="0 0 115 27" fill="none" xmlns="http://www.w3.org/2000/svg">
    <g clip-path="url(#clip0_379_6244)">
        <path
            d="M0 13.5238C0 9.72096 0 5.91815 0 2.11533C0 1.87765 0.00792888 1.63998 0.0237866 1.4023C0.0713599 0.538745 0.63431 0.00793457 1.51442 0.00793457C4.28952 0.00793457 7.06463 0.00793457 9.83974 0.00793457C10.7912 0.00793457 11.4017 0.602125 11.4017 1.56867C11.4097 6.50441 11.4176 11.4402 11.3938 16.3838C11.3859 17.3424 10.9974 18.1981 10.2362 18.8081C7.21528 21.2483 4.18645 23.6725 1.15762 26.0968C0.91975 26.287 0.618453 26.5247 0.340942 26.3108C0.150649 26.1602 0.0317155 25.8196 0.0237866 25.566C0 22.0009 0.00792888 18.4358 0 14.8706C0 14.419 0 13.9754 0 13.5238Z"
            fill="white" />
        <path
            d="M26.6648 26.9921C24.8808 26.9921 23.0968 26.9921 21.3128 26.9921C20.3059 26.9921 19.4416 26.6277 18.7677 25.8988C16.6269 23.6012 14.5019 21.2799 12.377 18.9666C11.8061 18.3486 11.8695 17.5247 12.5435 16.9859C14.4147 15.4727 16.2859 13.9754 18.173 12.478C18.9817 11.8363 19.7826 11.9234 20.4882 12.6919C22.8272 15.2271 25.1583 17.7623 27.4894 20.2975C29.1862 22.1435 30.8909 23.9894 32.5877 25.8354C32.8097 26.0731 33.1031 26.3266 32.9604 26.691C32.8097 27.0792 32.4212 27 32.0961 27C30.2804 26.9921 28.4726 26.9921 26.6648 26.9921Z"
            fill="white" />
        <path
            d="M26.5617 0.00791547C28.4092 0.00791547 30.2566 0.00791547 32.1119 0.00791547C32.215 0.00791547 32.334 -0.0158521 32.4291 0.015838C32.5956 0.0712957 32.8652 0.142599 32.8811 0.237669C32.9048 0.411965 32.8255 0.665486 32.6987 0.784324C32.3022 1.14876 31.8662 1.47358 31.4459 1.81425C27.8304 4.70598 24.2227 7.5977 20.623 10.4815C20.5279 10.5528 20.4327 10.632 20.3376 10.6875C19.8539 10.9727 19.5288 10.838 19.4099 10.2914C19.3782 10.1408 19.3702 9.97446 19.3702 9.82394C19.3702 7.09066 19.3702 4.35739 19.3702 1.63204C19.3702 0.58626 19.9411 0.00791547 20.9798 0.00791547C22.8352 0.00791547 24.6984 0.00791547 26.5617 0.00791547Z"
            fill="white" />
    </g>
    <path
        d="M42.296 21V7.59H44.744V14.574L44.078 14.34L49.784 7.59H52.862L47.516 13.926L47.66 12.198L53.024 21H50.144L46.544 15.096L44.744 17.238V21H42.296ZM54.9579 24.978C54.6939 24.978 54.4359 24.954 54.1839 24.906C53.9319 24.87 53.7039 24.804 53.4999 24.708V22.728C53.6559 22.764 53.8419 22.8 54.0579 22.836C54.2859 22.872 54.4959 22.89 54.6879 22.89C55.2279 22.89 55.6179 22.764 55.8579 22.512C56.1099 22.26 56.3319 21.93 56.5239 21.522L57.1719 20.01L57.1359 21.99L52.8699 11.208H55.4079L58.3959 19.164H57.4959L60.4659 11.208H63.0219L58.7559 21.99C58.5039 22.626 58.1979 23.166 57.8379 23.61C57.4779 24.054 57.0579 24.39 56.5779 24.618C56.1099 24.858 55.5699 24.978 54.9579 24.978ZM64.3168 21V11.208H66.5308V13.134L66.3508 12.792C66.5788 12.204 66.9508 11.76 67.4668 11.46C67.9948 11.148 68.6068 10.992 69.3028 10.992C70.0228 10.992 70.6588 11.148 71.2108 11.46C71.7748 11.772 72.2128 12.21 72.5248 12.774C72.8368 13.326 72.9928 13.968 72.9928 14.7V21H70.6348V15.258C70.6348 14.826 70.5508 14.454 70.3828 14.142C70.2148 13.83 69.9808 13.59 69.6808 13.422C69.3928 13.242 69.0508 13.152 68.6548 13.152C68.2708 13.152 67.9288 13.242 67.6288 13.422C67.3288 13.59 67.0948 13.83 66.9268 14.142C66.7588 14.454 66.6748 14.826 66.6748 15.258V21H64.3168ZM79.5407 21.216C78.5927 21.216 77.7467 20.994 77.0027 20.55C76.2587 20.094 75.6707 19.476 75.2387 18.696C74.8067 17.916 74.5907 17.052 74.5907 16.104C74.5907 15.144 74.8067 14.28 75.2387 13.512C75.6707 12.744 76.2587 12.132 77.0027 11.676C77.7587 11.22 78.5987 10.992 79.5227 10.992C80.2667 10.992 80.9267 11.142 81.5027 11.442C82.0907 11.73 82.5527 12.138 82.8887 12.666L82.5287 13.152V7.374H84.8867V21H82.6547V19.11L82.9067 19.578C82.5707 20.106 82.1027 20.514 81.5027 20.802C80.9027 21.078 80.2487 21.216 79.5407 21.216ZM79.7927 19.056C80.3327 19.056 80.8067 18.93 81.2147 18.678C81.6227 18.426 81.9407 18.078 82.1687 17.634C82.4087 17.19 82.5287 16.68 82.5287 16.104C82.5287 15.54 82.4087 15.036 82.1687 14.592C81.9407 14.136 81.6227 13.782 81.2147 13.53C80.8067 13.278 80.3327 13.152 79.7927 13.152C79.2647 13.152 78.7907 13.284 78.3707 13.548C77.9507 13.8 77.6207 14.148 77.3807 14.592C77.1527 15.024 77.0387 15.528 77.0387 16.104C77.0387 16.68 77.1527 17.19 77.3807 17.634C77.6207 18.078 77.9507 18.426 78.3707 18.678C78.7907 18.93 79.2647 19.056 79.7927 19.056ZM91.8684 21.216C90.9084 21.216 90.0324 20.994 89.2404 20.55C88.4604 20.106 87.8364 19.5 87.3684 18.732C86.9124 17.964 86.6844 17.088 86.6844 16.104C86.6844 15.12 86.9124 14.244 87.3684 13.476C87.8364 12.708 88.4604 12.102 89.2404 11.658C90.0204 11.214 90.8964 10.992 91.8684 10.992C92.8284 10.992 93.6984 11.214 94.4784 11.658C95.2584 12.102 95.8764 12.708 96.3324 13.476C96.8004 14.232 97.0344 15.108 97.0344 16.104C97.0344 17.088 96.8004 17.964 96.3324 18.732C95.8644 19.5 95.2404 20.106 94.4604 20.55C93.6804 20.994 92.8164 21.216 91.8684 21.216ZM91.8684 19.056C92.3964 19.056 92.8584 18.93 93.2544 18.678C93.6624 18.426 93.9804 18.078 94.2084 17.634C94.4484 17.178 94.5684 16.668 94.5684 16.104C94.5684 15.528 94.4484 15.024 94.2084 14.592C93.9804 14.148 93.6624 13.8 93.2544 13.548C92.8584 13.284 92.3964 13.152 91.8684 13.152C91.3284 13.152 90.8544 13.284 90.4464 13.548C90.0384 13.8 89.7144 14.148 89.4744 14.592C89.2464 15.024 89.1324 15.528 89.1324 16.104C89.1324 16.668 89.2464 17.178 89.4744 17.634C89.7144 18.078 90.0384 18.426 90.4464 18.678C90.8544 18.93 91.3284 19.056 91.8684 19.056ZM98.8226 21V11.208H101.037V13.476L100.785 13.098C100.965 12.39 101.325 11.862 101.865 11.514C102.405 11.166 103.041 10.992 103.773 10.992C104.577 10.992 105.285 11.202 105.897 11.622C106.509 12.042 106.905 12.594 107.085 13.278L106.419 13.332C106.719 12.552 107.169 11.97 107.769 11.586C108.369 11.19 109.059 10.992 109.839 10.992C110.535 10.992 111.153 11.148 111.693 11.46C112.245 11.772 112.677 12.21 112.989 12.774C113.301 13.326 113.457 13.968 113.457 14.7V21H111.099V15.258C111.099 14.826 111.021 14.454 110.865 14.142C110.709 13.83 110.493 13.59 110.217 13.422C109.941 13.242 109.605 13.152 109.209 13.152C108.837 13.152 108.507 13.242 108.219 13.422C107.931 13.59 107.709 13.83 107.553 14.142C107.397 14.454 107.319 14.826 107.319 15.258V21H104.961V15.258C104.961 14.826 104.883 14.454 104.727 14.142C104.571 13.83 104.349 13.59 104.061 13.422C103.785 13.242 103.455 13.152 103.071 13.152C102.699 13.152 102.369 13.242 102.081 13.422C101.793 13.59 101.571 13.83 101.415 14.142C101.259 14.454 101.181 14.826 101.181 15.258V21H98.8226Z"
        fill="white" />
    <defs>
        <clipPath id="clip0_379_6244">
            <rect width="33" height="27" fill="white" />
        </clipPath>
    </defs>
</svg>    