<svg width="123" height="35" viewBox="0 0 123 35" fill="none" xmlns="http://www.w3.org/2000/svg">
    <g clip-path="url(#clip0_0_1)">
        <path
            d="M0 17.5302C0 12.7415 0 7.95274 0 3.16401C0 2.86471 0.0102871 2.56542 0.0308612 2.26612C0.0925837 1.17868 0.822966 0.510254 1.96483 0.510254C5.56531 0.510254 9.16579 0.510254 12.7663 0.510254C14.0007 0.510254 14.7928 1.25849 14.7928 2.47563C14.8031 8.69101 14.8134 14.9064 14.7825 21.1317C14.7722 22.3389 14.2682 23.4164 13.2806 24.1845C9.36124 27.2573 5.43158 30.3101 1.50191 33.363C1.1933 33.6024 0.802392 33.9017 0.442344 33.6323C0.195454 33.4428 0.0411483 33.0138 0.0308612 32.6945C0 28.2051 0.0102871 23.7157 0 19.2262C0 18.6576 0 18.0989 0 17.5302Z"
            fill="#03644B" />
        <path
            d="M34.5953 34.4901C32.2807 34.4901 29.9661 34.4901 27.6515 34.4901C26.3451 34.4901 25.2238 34.0312 24.3494 33.1134C21.5718 30.2202 18.8149 27.2971 16.058 24.3839C15.3173 23.6058 15.3996 22.5682 16.274 21.8898C18.7018 19.9843 21.1295 18.0987 23.5778 16.2131C24.6271 15.405 25.6661 15.5148 26.5817 16.4825C29.6163 19.675 32.6407 22.8675 35.6651 26.06C37.8666 28.3845 40.0783 30.709 42.2797 33.0336C42.5678 33.3329 42.9484 33.6521 42.7632 34.111C42.5678 34.5999 42.0637 34.5001 41.6419 34.5001C39.2862 34.4901 36.9407 34.4901 34.5953 34.4901Z"
            fill="#03644B" />
        <path
            d="M34.4617 0.510286C36.8586 0.510286 39.2555 0.510286 41.6627 0.510286C41.7964 0.510286 41.9507 0.480357 42.0742 0.520263C42.2902 0.590099 42.64 0.679887 42.6605 0.799606C42.6914 1.01909 42.5885 1.33834 42.4239 1.48799C41.9096 1.94691 41.3438 2.35594 40.7986 2.78493C36.1077 6.42637 31.427 10.0678 26.7567 13.6993C26.6333 13.789 26.5098 13.8888 26.3864 13.9586C25.7589 14.3178 25.3371 14.1482 25.1828 13.4598C25.1416 13.2703 25.1313 13.0608 25.1313 12.8712C25.1313 9.4293 25.1313 5.9874 25.1313 2.55547C25.1313 1.23857 25.872 0.510286 27.2196 0.510286C29.6268 0.510286 32.0443 0.510286 34.4617 0.510286Z"
            fill="#03644B" />
    </g>
    <path
        d="M55.224 23V10.335H57.536V16.931L56.907 16.71L62.296 10.335H65.203L60.154 16.319L60.29 14.687L65.356 23H62.636L59.236 17.424L57.536 19.447V23H55.224ZM67.1824 26.757C66.9331 26.757 66.6894 26.7343 66.4514 26.689C66.2134 26.655 65.9981 26.5927 65.8054 26.502V24.632C65.9528 24.666 66.1284 24.7 66.3324 24.734C66.5478 24.768 66.7461 24.785 66.9274 24.785C67.4374 24.785 67.8058 24.666 68.0324 24.428C68.2704 24.19 68.4801 23.8783 68.6614 23.493L69.2734 22.065L69.2394 23.935L65.2104 13.752H67.6074L70.4294 21.266H69.5794L72.3844 13.752H74.7984L70.7694 23.935C70.5314 24.5357 70.2424 25.0457 69.9024 25.465C69.5624 25.8843 69.1658 26.2017 68.7124 26.417C68.2704 26.6437 67.7604 26.757 67.1824 26.757ZM76.0214 23V13.752H78.1124V15.571L77.9424 15.248C78.1577 14.6927 78.509 14.2733 78.9964 13.99C79.495 13.6953 80.073 13.548 80.7304 13.548C81.4104 13.548 82.011 13.6953 82.5324 13.99C83.065 14.2847 83.4787 14.6983 83.7734 15.231C84.068 15.7523 84.2154 16.3587 84.2154 17.05V23H81.9884V17.577C81.9884 17.169 81.909 16.8177 81.7504 16.523C81.5917 16.2283 81.3707 16.0017 81.0874 15.843C80.8154 15.673 80.4924 15.588 80.1184 15.588C79.7557 15.588 79.4327 15.673 79.1494 15.843C78.866 16.0017 78.645 16.2283 78.4864 16.523C78.3277 16.8177 78.2484 17.169 78.2484 17.577V23H76.0214ZM90.3995 23.204C89.5042 23.204 88.7052 22.9943 88.0025 22.575C87.2999 22.1443 86.7445 21.5607 86.3365 20.824C85.9285 20.0873 85.7245 19.2713 85.7245 18.376C85.7245 17.4693 85.9285 16.6533 86.3365 15.928C86.7445 15.2027 87.2999 14.6247 88.0025 14.194C88.7165 13.7633 89.5099 13.548 90.3825 13.548C91.0852 13.548 91.7085 13.6897 92.2525 13.973C92.8079 14.245 93.2442 14.6303 93.5615 15.129L93.2215 15.588V10.131H95.4485V23H93.3405V21.215L93.5785 21.657C93.2612 22.1557 92.8192 22.541 92.2525 22.813C91.6859 23.0737 91.0682 23.204 90.3995 23.204ZM90.6375 21.164C91.1475 21.164 91.5952 21.045 91.9805 20.807C92.3659 20.569 92.6662 20.2403 92.8815 19.821C93.1082 19.4017 93.2215 18.92 93.2215 18.376C93.2215 17.8433 93.1082 17.3673 92.8815 16.948C92.6662 16.5173 92.3659 16.183 91.9805 15.945C91.5952 15.707 91.1475 15.588 90.6375 15.588C90.1389 15.588 89.6912 15.7127 89.2945 15.962C88.8979 16.2 88.5862 16.5287 88.3595 16.948C88.1442 17.356 88.0365 17.832 88.0365 18.376C88.0365 18.92 88.1442 19.4017 88.3595 19.821C88.5862 20.2403 88.8979 20.569 89.2945 20.807C89.6912 21.045 90.1389 21.164 90.6375 21.164ZM102.042 23.204C101.136 23.204 100.308 22.9943 99.5604 22.575C98.8237 22.1557 98.2344 21.5833 97.7924 20.858C97.3617 20.1327 97.1464 19.3053 97.1464 18.376C97.1464 17.4467 97.3617 16.6193 97.7924 15.894C98.2344 15.1687 98.8237 14.5963 99.5604 14.177C100.297 13.7577 101.124 13.548 102.042 13.548C102.949 13.548 103.771 13.7577 104.507 14.177C105.244 14.5963 105.828 15.1687 106.258 15.894C106.7 16.608 106.921 17.4353 106.921 18.376C106.921 19.3053 106.7 20.1327 106.258 20.858C105.816 21.5833 105.227 22.1557 104.49 22.575C103.754 22.9943 102.938 23.204 102.042 23.204ZM102.042 21.164C102.541 21.164 102.977 21.045 103.351 20.807C103.737 20.569 104.037 20.2403 104.252 19.821C104.479 19.3903 104.592 18.9087 104.592 18.376C104.592 17.832 104.479 17.356 104.252 16.948C104.037 16.5287 103.737 16.2 103.351 15.962C102.977 15.7127 102.541 15.588 102.042 15.588C101.532 15.588 101.085 15.7127 100.699 15.962C100.314 16.2 100.008 16.5287 99.7814 16.948C99.5661 17.356 99.4584 17.832 99.4584 18.376C99.4584 18.9087 99.5661 19.3903 99.7814 19.821C100.008 20.2403 100.314 20.569 100.699 20.807C101.085 21.045 101.532 21.164 102.042 21.164ZM108.61 23V13.752H110.701V15.894L110.463 15.537C110.633 14.8683 110.973 14.3697 111.483 14.041C111.993 13.7123 112.594 13.548 113.285 13.548C114.045 13.548 114.713 13.7463 115.291 14.143C115.869 14.5397 116.243 15.061 116.413 15.707L115.784 15.758C116.068 15.0213 116.493 14.4717 117.059 14.109C117.626 13.735 118.278 13.548 119.014 13.548C119.672 13.548 120.255 13.6953 120.765 13.99C121.287 14.2847 121.695 14.6983 121.989 15.231C122.284 15.7523 122.431 16.3587 122.431 17.05V23H120.204V17.577C120.204 17.169 120.131 16.8177 119.983 16.523C119.836 16.2283 119.632 16.0017 119.371 15.843C119.111 15.673 118.793 15.588 118.419 15.588C118.068 15.588 117.756 15.673 117.484 15.843C117.212 16.0017 117.003 16.2283 116.855 16.523C116.708 16.8177 116.634 17.169 116.634 17.577V23H114.407V17.577C114.407 17.169 114.334 16.8177 114.186 16.523C114.039 16.2283 113.829 16.0017 113.557 15.843C113.297 15.673 112.985 15.588 112.622 15.588C112.271 15.588 111.959 15.673 111.687 15.843C111.415 16.0017 111.206 16.2283 111.058 16.523C110.911 16.8177 110.837 17.169 110.837 17.577V23H108.61Z"
        fill="#03644B" />
    <defs>
        <clipPath id="clip0_0_1">
            <rect width="42.8148" height="34" fill="white" transform="translate(0 0.5)" />
        </clipPath>
    </defs>
</svg>    