<svg width="21" height="21" viewBox="0 0 21 21" fill="none" xmlns="http://www.w3.org/2000/svg">
    <path
        d="M15.0542 0.563481C14.8473 0.569126 14.6467 0.636143 14.4779 0.756025C14.3091 0.875907 14.1798 1.04324 14.1063 1.23679L12.3775 5.76789L5.63272 3.79516C5.45953 3.74465 5.27622 3.73975 5.10057 3.78093C4.92493 3.82211 4.7629 3.90797 4.6302 4.0302C4.4975 4.15242 4.39864 4.30686 4.34318 4.47854C4.28773 4.65021 4.27758 4.8333 4.31371 5.01006L5.7282 11.8958L1.07181 13.2459C0.873777 13.3036 0.697184 13.4184 0.564197 13.5761C0.431209 13.7338 0.347752 13.9272 0.324298 14.1321C0.300844 14.3371 0.338439 14.5443 0.432364 14.728C0.526289 14.9116 0.672361 15.0634 0.852247 15.1644L9.84568 20.2064C9.93605 20.257 10.0366 20.2867 10.14 20.2933C10.2434 20.2998 10.3469 20.2831 10.443 20.2443C10.539 20.2055 10.6251 20.1456 10.6949 20.069C10.7647 19.9925 10.8164 19.9013 10.8462 19.8021C10.8534 19.7779 11.6167 17.3433 14.4709 14.7143C17.3252 12.0853 19.8142 11.5243 19.8371 11.5197C19.9387 11.4985 20.0343 11.4547 20.1168 11.3914C20.1992 11.3282 20.2663 11.2472 20.3131 11.1545C20.36 11.0618 20.3853 10.9597 20.3873 10.8559C20.3893 10.752 20.3679 10.6491 20.3246 10.5546L16.0392 1.17975C15.9547 0.990909 15.8159 0.831474 15.6405 0.721732C15.4651 0.611991 15.261 0.556903 15.0542 0.563481ZM15.4515 9.67333C15.5392 9.81016 15.5758 9.97346 15.5551 10.1346C15.5344 10.2958 15.4576 10.4445 15.3382 10.5547C15.3083 10.5822 15.2762 10.607 15.2421 10.6291C13.3601 11.8469 11.6993 13.3766 10.3312 15.1524C10.276 15.2247 10.2072 15.2853 10.1287 15.331C10.0501 15.3766 9.96332 15.4063 9.87327 15.4184C9.69142 15.4428 9.5073 15.394 9.36144 15.2827C9.21557 15.1714 9.1199 15.0067 9.09547 14.8248C9.07104 14.643 9.11985 14.4588 9.23117 14.313C10.6976 12.4091 12.478 10.7692 14.4958 9.46395C14.5722 9.41442 14.6577 9.38048 14.7473 9.36407C14.8369 9.34767 14.9289 9.34913 15.0179 9.36837C15.107 9.38761 15.1913 9.42424 15.2662 9.47618C15.341 9.52811 15.4049 9.59431 15.4541 9.67099L15.4515 9.67333Z"
        fill="#FFC93E" fill-opacity="0.56" />
</svg>
    